Monda FF-Bold.ufo
<glyph name="quotedbl" format="1">
  <advance width="916"/>
  <unicode hex="0022"/>
  <outline>
    <contour>
      <point x="223" y="872" type="line"/>
      <point x="342" y="872" type="line"/>
      <point x="397" y="1516" type="line"/>
      <point x="144" y="1516" type="line"/>
    </contour>
    <contour>
      <point x="576" y="872" type="line"/>
      <point x="695" y="872" type="line"/>
      <point x="772" y="1516" type="line"/>
      <point x="518" y="1516" type="line"/>
    </contour>
  </outline>
</glyph>
<glyph name="ampersand" format="1">
  <advance width="1526"/>
  <unicode hex="0026"/>
  <outline>
    <contour>
      <point x="730" y="-27" type="curve" smooth="yes"/>
      <point x="983" y="-27"/>
      <point x="1107" y="17"/>
      <point x="1182" y="103" type="curve"/>
      <point x="1310" y="-23" type="line"/>
      <point x="1470" y="150" type="line"/>
      <point x="1301" y="309" type="line"/>
      <point x="1319" y="367"/>
      <point x="1327" y="462"/>
      <point x="1327" y="549" type="curve" smooth="yes"/>
      <point x="1327" y="822" type="line"/>
      <point x="1092" y="822" type="line"/>
      <point x="1092" y="531" type="line" smooth="yes"/>
      <point x="1092" y="515"/>
      <point x="1092" y="514"/>
      <point x="1091" y="500" type="curve"/>
      <point x="634" y="951" type="line"/>
      <point x="543" y="1046"/>
      <point x="517" y="1071"/>
      <point x="517" y="1149" type="curve" smooth="yes"/>
      <point x="517" y="1244"/>
      <point x="552" y="1305"/>
      <point x="755" y="1305" type="curve" smooth="yes"/>
      <point x="943" y="1305"/>
      <point x="996" y="1290"/>
      <point x="996" y="1152" type="curve" smooth="yes"/>
      <point x="996" y="1110" type="line"/>
      <point x="1234" y="1110" type="line"/>
      <point x="1234" y="1193" type="line" smooth="yes"/>
      <point x="1234" y="1429"/>
      <point x="1097" y="1506"/>
      <point x="747" y="1506" type="curve" smooth="yes"/>
      <point x="386" y="1506"/>
      <point x="253" y="1395"/>
      <point x="253" y="1165" type="curve" smooth="yes"/>
      <point x="253" y="1011"/>
      <point x="323" y="922"/>
      <point x="428" y="825" type="curve"/>
      <point x="233" y="767"/>
      <point x="144" y="661"/>
      <point x="144" y="460" type="curve" smooth="yes"/>
      <point x="144" y="108"/>
      <point x="287" y="-27"/>
    </contour>
    <contour>
      <point x="730" y="195" type="curve" smooth="yes"/>
      <point x="474" y="195"/>
      <point x="416" y="260"/>
      <point x="416" y="466" type="curve" smooth="yes"/>
      <point x="416" y="588"/>
      <point x="419" y="668"/>
      <point x="555" y="704" type="curve"/>
      <point x="989" y="279" type="line"/>
      <point x="953" y="198"/>
      <point x="839" y="195"/>
    </contour>
  </outline>
</glyph>
<glyph name="one" format="1">
  <advance width="1448"/>
  <unicode hex="0031"/>
  <unicode hex="00B9"/>
  <outline>
    <contour>
      <point x="222" y="0" type="line"/>
      <point x="1330" y="0" type="line"/>
      <point x="1330" y="209" type="line"/>
      <point x="951" y="209" type="line"/>
      <point x="951" y="1477" type="line"/>
      <point x="746" y="1477" type="line"/>
      <point x="218" y="1404" type="line"/>
      <point x="244" y="1187" type="line"/>
      <point x="654" y="1241" type="line"/>
      <point x="654" y="209" type="line"/>
      <point x="222" y="209" type="line"/>
    </contour>
  </outline>
</glyph>
<glyph name="nine" format="1">
  <advance width="1448"/>
  <unicode hex="0039"/>
  <outline>
    <contour>
      <point x="521" y="0" type="line"/>
      <point x="841" y="0" type="line"/>
      <point x="1131" y="528" type="line"/>
      <point x="1209" y="677"/>
      <point x="1266" y="840"/>
      <point x="1266" y="1031" type="curve" smooth="yes"/>
      <point x="1266" y="1367"/>
      <point x="1109" y="1503"/>
      <point x="743" y="1503" type="curve" smooth="yes"/>
      <point x="383" y="1503"/>
      <point x="202" y="1386"/>
      <point x="202" y="1044" type="curve" smooth="yes"/>
      <point x="202" y="686"/>
      <point x="377" y="569"/>
      <point x="691" y="569" type="curve" smooth="yes"/>
      <point x="721" y="569"/>
      <point x="807" y="578"/>
      <point x="843" y="589" type="curve"/>
    </contour>
    <contour>
      <point x="742" y="789" type="curve" smooth="yes"/>
      <point x="550" y="789"/>
      <point x="487" y="851"/>
      <point x="487" y="1044" type="curve" smooth="yes"/>
      <point x="487" y="1233"/>
      <point x="553" y="1289"/>
      <point x="739" y="1289" type="curve" smooth="yes"/>
      <point x="918" y="1289"/>
      <point x="974" y="1239"/>
      <point x="974" y="1046" type="curve" smooth="yes"/>
      <point x="974" y="855"/>
      <point x="917" y="789"/>
    </contour>
  </outline>
</glyph>
<glyph name="B" format="1">
  <advance width="1474"/>
  <unicode hex="0042"/>
  <outline>
    <contour>
      <point x="212" y="0" type="line"/>
      <point x="838" y="0" type="line" smooth="yes"/>
      <point x="1204" y="0"/>
      <point x="1359" y="139"/>
      <point x="1352" y="448" type="curve"/>
      <point x="1352" y="641"/>
      <point x="1305" y="776"/>
      <point x="1100" y="804" type="curve"/>
      <point x="1254" y="843"/>
      <point x="1298" y="938"/>
      <point x="1299" y="1088" type="curve"/>
      <point x="1299" y="1353"/>
      <point x="1189" y="1477"/>
      <point x="776" y="1477" type="curve" smooth="yes"/>
      <point x="212" y="1477" type="line"/>
    </contour>
    <contour>
      <point x="509" y="208" type="line"/>
      <point x="509" y="703" type="line"/>
      <point x="813" y="703" type="line" smooth="yes"/>
      <point x="1035" y="703"/>
      <point x="1056" y="602"/>
      <point x="1056" y="455" type="curve" smooth="yes"/>
      <point x="1056" y="250"/>
      <point x="1014" y="208"/>
      <point x="783" y="208" type="curve" smooth="yes"/>
    </contour>
    <contour>
      <point x="509" y="882" type="line"/>
      <point x="509" y="1273" type="line"/>
      <point x="757" y="1273" type="line" smooth="yes"/>
      <point x="958" y="1273"/>
      <point x="996" y="1240"/>
      <point x="996" y="1085" type="curve" smooth="yes"/>
      <point x="996" y="952"/>
      <point x="975" y="882"/>
      <point x="802" y="882" type="curve" smooth="yes"/>
    </contour>
  </outline>
</glyph>
<glyph name="E" format="1">
  <advance width="1314"/>
  <unicode hex="0045"/>
  <outline>
    <contour>
      <point x="212" y="0" type="line"/>
      <point x="1190" y="0" type="line"/>
      <point x="1190" y="227" type="line"/>
      <point x="509" y="227" type="line"/>
      <point x="509" y="646" type="line"/>
      <point x="1103" y="646" type="line"/>
      <point x="1103" y="860" type="line"/>
      <point x="509" y="860" type="line"/>
      <point x="509" y="1249" type="line"/>
      <point x="1179" y="1249" type="line"/>
      <point x="1179" y="1477" type="line"/>
      <point x="212" y="1477" type="line"/>
    </contour>
  </outline>
</glyph>
<glyph name="H" format="1">
  <advance width="1664"/>
  <unicode hex="0048"/>
  <outline>
    <contour>
      <point x="212" y="0" type="line"/>
      <point x="509" y="0" type="line"/>
      <point x="509" y="615" type="line"/>
      <point x="1155" y="615" type="line"/>
      <point x="1155" y="0" type="line"/>
      <point x="1452" y="0" type="line"/>
      <point x="1452" y="1476" type="line"/>
      <point x="1155" y="1476" type="line"/>
      <point x="1155" y="848" type="line"/>
      <point x="509" y="848" type="line"/>
      <point x="509" y="1476" type="line"/>
      <point x="212" y="1476" type="line"/>
    </contour>
  </outline>
</glyph>
<glyph name="P" format="1">
  <advance width="1366"/>
  <unicode hex="0050"/>
  <outline>
    <contour>
      <point x="212" y="0" type="line"/>
      <point x="509" y="0" type="line"/>
      <point x="509" y="509" type="line"/>
      <point x="758" y="509" type="line" smooth="yes"/>
      <point x="1144" y="509"/>
      <point x="1268" y="663"/>
      <point x="1268" y="1005" type="curve" smooth="yes"/>
      <point x="1268" y="1337"/>
      <point x="1113" y="1477"/>
      <point x="787" y="1477" type="curve" smooth="yes"/>
      <point x="212" y="1477" type="line"/>
    </contour>
    <contour>
      <point x="509" y="726" type="line"/>
      <point x="509" y="1265" type="line"/>
      <point x="815" y="1265" type="line" smooth="yes"/>
      <point x="955" y="1265"/>
      <point x="990" y="1145"/>
      <point x="990" y="990" type="curve" smooth="yes"/>
      <point x="990" y="813"/>
      <point x="955" y="726"/>
      <point x="805" y="726" type="curve" smooth="yes"/>
    </contour>
  </outline>
</glyph>
<glyph name="e" format="1">
  <advance width="1210"/>
  <unicode hex="0065"/>
  <outline>
    <contour>
      <point x="611" y="-23" type="curve" smooth="yes"/>
      <point x="902" y="-23"/>
      <point x="1055" y="45"/>
      <point x="1063" y="350" type="curve"/>
      <point x="811" y="350" type="line"/>
      <point x="806" y="188"/>
      <point x="741" y="166"/>
      <point x="616" y="166" type="curve" smooth="yes"/>
      <point x="486" y="166"/>
      <point x="421" y="203"/>
      <point x="421" y="330" type="curve" smooth="yes"/>
      <point x="421" y="512" type="line"/>
      <point x="1064" y="512" type="line"/>
      <point x="1064" y="745" type="line" smooth="yes"/>
      <point x="1064" y="961"/>
      <point x="938" y="1097"/>
      <point x="607" y="1097" type="curve" smooth="yes"/>
      <point x="328" y="1097"/>
      <point x="148" y="974"/>
      <point x="148" y="755" type="curve" smooth="yes"/>
      <point x="148" y="336" type="line" smooth="yes"/>
      <point x="148" y="60"/>
      <point x="348" y="-23"/>
    </contour>
    <contour>
      <point x="421" y="655" type="line"/>
      <point x="421" y="760" type="line" smooth="yes"/>
      <point x="421" y="874"/>
      <point x="505" y="907"/>
      <point x="614" y="907" type="curve" smooth="yes"/>
      <point x="723" y="907"/>
      <point x="807" y="884"/>
      <point x="807" y="765" type="curve" smooth="yes"/>
      <point x="807" y="655" type="line"/>
    </contour>
  </outline>
</glyph>
<glyph name="i" format="1">
  <advance width="632"/>
  <unicode hex="0069"/>
  <outline>
    <contour>
      <point x="180" y="0" type="line"/>
      <point x="452" y="0" type="line"/>
      <point x="452" y="1074" type="line"/>
      <point x="180" y="1074" type="line"/>
    </contour>
    <contour>
      <point x="180" y="1227" type="line"/>
      <point x="452" y="1227" type="line"/>
      <point x="452" y="1468" type="line"/>
      <point x="180" y="1468" type="line"/>
    </contour>
  </outline>
</glyph>
<glyph name="l" format="1">
  <advance width="741"/>
  <unicode hex="006C"/>
  <outline>
    <contour>
      <point x="529" y="-12" type="curve" smooth="yes"/>
      <point x="643" y="-12" type="line"/>
      <point x="664" y="190" type="line"/>
      <point x="630" y="190" type="line" smooth="yes"/>
      <point x="484" y="190"/>
      <point x="450" y="239"/>
      <point x="450" y="357" type="curve" smooth="yes"/>
      <point x="450" y="1515" type="line"/>
      <point x="178" y="1515" type="line"/>
      <point x="178" y="353" type="line" smooth="yes"/>
      <point x="178" y="83"/>
      <point x="290" y="-12"/>
    </contour>
  </outline>
</glyph>
<glyph name="o" format="1">
  <advance width="1228"/>
  <unicode hex="006F"/>
  <outline>
    <contour>
      <point x="614" y="166" type="curve" smooth="yes"/>
      <point x="489" y="166"/>
      <point x="420" y="204"/>
      <point x="420" y="313" type="curve" smooth="yes"/>
      <point x="420" y="760" type="line" smooth="yes"/>
      <point x="420" y="869"/>
      <point x="496" y="907"/>
      <point x="614" y="907" type="curve" smooth="yes"/>
      <point x="737" y="907"/>
      <point x="807" y="869"/>
      <point x="807" y="760" type="curve" smooth="yes"/>
      <point x="807" y="313" type="line" smooth="yes"/>
      <point x="807" y="204"/>
      <point x="730" y="166"/>
    </contour>
    <contour>
      <point x="614" y="-23" type="curve" smooth="yes"/>
      <point x="963" y="-23"/>
      <point x="1080" y="112"/>
      <point x="1080" y="325" type="curve" smooth="yes"/>
      <point x="1080" y="748" type="line" smooth="yes"/>
      <point x="1080" y="967"/>
      <point x="907" y="1097"/>
      <point x="614" y="1097" type="curve" smooth="yes"/>
      <point x="319" y="1097"/>
      <point x="148" y="967"/>
      <point x="148" y="748" type="curve" smooth="yes"/>
      <point x="148" y="325" type="line" smooth="yes"/>
      <point x="148" y="111"/>
      <point x="275" y="-23"/>
    </contour>
  </outline>
</glyph>
<glyph name="s" format="1">
  <advance width="1030"/>
  <unicode hex="0073"/>
  <outline>
    <contour>
      <point x="551" y="-23" type="curve" smooth="yes"/>
      <point x="808" y="-23"/>
      <point x="936" y="122"/>
      <point x="936" y="303" type="curve" smooth="yes"/>
      <point x="936" y="471"/>
      <point x="875" y="569"/>
      <point x="694" y="626" type="curve" smooth="yes"/>
      <point x="467" y="698" type="line" smooth="yes"/>
      <point x="412" y="716"/>
      <point x="398" y="751"/>
      <point x="399" y="806" type="curve" smooth="yes"/>
      <point x="400" y="873"/>
      <point x="434" y="907"/>
      <point x="549" y="907" type="curve" smooth="yes"/>
      <point x="651" y="907"/>
      <point x="776" y="858"/>
      <point x="835" y="818" type="curve"/>
      <point x="919" y="977" type="line"/>
      <point x="849" y="1031"/>
      <point x="708" y="1097"/>
      <point x="524" y="1097" type="curve" smooth="yes"/>
      <point x="298" y="1097"/>
      <point x="140" y="1001"/>
      <point x="138" y="796" type="curve"/>
      <point x="135" y="652"/>
      <point x="191" y="542"/>
      <point x="360" y="489" type="curve" smooth="yes"/>
      <point x="596" y="415" type="line" smooth="yes"/>
      <point x="678" y="389"/>
      <point x="684" y="338"/>
      <point x="684" y="285" type="curve" smooth="yes"/>
      <point x="684" y="225"/>
      <point x="643" y="166"/>
      <point x="541" y="166" type="curve" smooth="yes"/>
      <point x="435" y="166"/>
      <point x="315" y="207"/>
      <point x="213" y="280" type="curve"/>
      <point x="120" y="111" type="line"/>
      <point x="218" y="31"/>
      <point x="369" y="-23"/>
    </contour>
  </outline>
</glyph>
<glyph name="t" format="1">
  <advance width="870"/>
  <unicode hex="0074"/>
  <outline>
    <contour>
      <point x="674" y="-12" type="curve" smooth="yes"/>
      <point x="744" y="-12" type="line"/>
      <point x="764" y="190" type="line"/>
      <point x="732" y="190" type="line" smooth="yes"/>
      <point x="552" y="190"/>
      <point x="499" y="227"/>
      <point x="499" y="360" type="curve" smooth="yes"/>
      <point x="499" y="901" type="line"/>
      <point x="754" y="901" type="line"/>
      <point x="754" y="1074" type="line"/>
      <point x="499" y="1074" type="line"/>
      <point x="499" y="1419" type="line"/>
      <point x="260" y="1419" type="line"/>
      <point x="234" y="1074" type="line"/>
      <point x="84" y="1074" type="line"/>
      <point x="84" y="901" type="line"/>
      <point x="226" y="901" type="line"/>
      <point x="226" y="341" type="line" smooth="yes"/>
      <point x="226" y="65"/>
      <point x="350" y="-12"/>
    </contour>
  </outline>
</glyph>
<glyph name="v" format="1">
  <advance width="1138"/>
  <unicode hex="0076"/>
  <outline>
    <contour>
      <point x="422" y="0" type="line"/>
      <point x="721" y="0" type="line"/>
      <point x="1110" y="1074" type="line"/>
      <point x="846" y="1074" type="line"/>
      <point x="577" y="261" type="line"/>
      <point x="303" y="1074" type="line"/>
      <point x="28" y="1074" type="line"/>
    </contour>
  </outline>
</glyph>
<glyph name="w" format="1">
  <advance width="1664"/>
  <unicode hex="0077"/>
  <outline>
    <contour>
      <point x="343" y="0" type="line"/>
      <point x="593" y="0" type="line"/>
      <point x="838" y="739" type="line"/>
      <point x="1074" y="0" type="line"/>
      <point x="1332" y="0" type="line"/>
      <point x="1616" y="1074" type="line"/>
      <point x="1363" y="1074" type="line"/>
      <point x="1178" y="313" type="line"/>
      <point x="942" y="1074" type="line"/>
      <point x="729" y="1074" type="line"/>
      <point x="500" y="322" type="line"/>
      <point x="302" y="1074" type="line"/>
      <point x="48" y="1074" type="line"/>
    </contour>
  </outline>
</glyph>
<glyph name="bar" format="1">
  <advance width="449"/>
  <unicode hex="007C"/>
  <outline>
    <contour>
      <point x="155" y="-126" type="line"/>
      <point x="337" y="-126" type="line"/>
      <point x="337" y="1608" type="line"/>
      <point x="155" y="1608" type="line"/>
    </contour>
  </outline>
</glyph>
<glyph name="braceright" format="1">
  <advance width="1002"/>
  <unicode hex="007D"/>
  <outline>
    <contour>
      <point x="168" y="-117" type="curve"/>
      <point x="525" y="-117"/>
      <point x="635" y="-75"/>
      <point x="635" y="300" type="curve" smooth="yes"/>
      <point x="635" y="404" type="line" smooth="yes"/>
      <point x="635" y="566"/>
      <point x="678" y="606"/>
      <point x="825" y="606" type="curve"/>
      <point x="825" y="844" type="line"/>
      <point x="679" y="844"/>
      <point x="635" y="868"/>
      <point x="635" y="1030" type="curve" smooth="yes"/>
      <point x="635" y="1118" type="line" smooth="yes"/>
      <point x="635" y="1451"/>
      <point x="543" y="1567"/>
      <point x="168" y="1567" type="curve"/>
      <point x="168" y="1567"/>
      <point x="167" y="1393"/>
      <point x="168" y="1393" type="curve" smooth="yes"/>
      <point x="341" y="1393"/>
      <point x="355" y="1339"/>
      <point x="355" y="1187" type="curve" smooth="yes"/>
      <point x="355" y="1071" type="line" smooth="yes"/>
      <point x="355" y="870"/>
      <point x="398" y="760"/>
      <point x="516" y="718" type="curve"/>
      <point x="403" y="682"/>
      <point x="356" y="543"/>
      <point x="356" y="360" type="curve" smooth="yes"/>
      <point x="356" y="229" type="line" smooth="yes"/>
      <point x="356" y="90"/>
      <point x="343" y="57"/>
      <point x="168" y="57" type="curve" smooth="yes"/>
      <point x="167" y="57"/>
      <point x="168" y="-117"/>
    </contour>
  </outline>
</glyph>
<glyph name="asciitilde" format="1">
  <advance width="881"/>
  <unicode hex="007E"/>
  <outline>
    <contour>
      <point x="262" y="1131" type="curve" smooth="yes"/>
      <point x="415" y="1131"/>
      <point x="552" y="1299"/>
      <point x="632" y="1299" type="curve" smooth="yes"/>
      <point x="722" y="1299"/>
      <point x="755" y="1218"/>
      <point x="755" y="1147" type="curve"/>
      <point x="864" y="1147" type="line"/>
      <point x="864" y="1335"/>
      <point x="756" y="1466"/>
      <point x="621" y="1466" type="curve" smooth="yes"/>
      <point x="467" y="1466"/>
      <point x="331" y="1297"/>
      <point x="252" y="1297" type="curve" smooth="yes"/>
      <point x="161" y="1297"/>
      <point x="128" y="1379"/>
      <point x="128" y="1450" type="curve"/>
      <point x="20" y="1450" type="line"/>
      <point x="20" y="1261"/>
      <point x="127" y="1131"/>
    </contour>
  </outline>
</glyph>
<glyph name="exclamdown" format="1">
  <advance width="444"/>
  <unicode hex="00A1"/>
  <outline>
    <contour>
      <point x="99" y="-395" type="line"/>
      <point x="357" y="-395" type="line"/>
      <point x="280" y="702" type="line"/>
      <point x="190" y="702" type="line"/>
    </contour>
    <contour>
      <point x="110" y="836" type="line"/>
      <point x="358" y="836" type="line"/>
      <point x="358" y="1081" type="line"/>
      <point x="110" y="1081" type="line"/>
    </contour>
  </outline>
</glyph>
<glyph name="currency" format="1">
  <advance width="1126"/>
  <unicode hex="00A4"/>
  <outline>
    <contour>
      <point x="548" y="402" type="curve" smooth="yes"/>
      <point x="662" y="402"/>
      <point x="752" y="442"/>
      <point x="812" y="502" type="curve"/>
      <point x="958" y="405" type="line"/>
      <point x="1013" y="483" type="line"/>
      <point x="868" y="578" type="line"/>
      <point x="893" y="625"/>
      <point x="905" y="679"/>
      <point x="905" y="733" type="curve" smooth="yes"/>
      <point x="905" y="788"/>
      <point x="892" y="843"/>
      <point x="866" y="891" type="curve"/>
      <point x="1010" y="988" type="line"/>
      <point x="960" y="1067" type="line"/>
      <point x="810" y="967" type="line"/>
      <point x="750" y="1026"/>
      <point x="662" y="1064"/>
      <point x="548" y="1064" type="curve" smooth="yes"/>
      <point x="434" y="1064"/>
      <point x="347" y="1027"/>
      <point x="287" y="971" type="curve"/>
      <point x="145" y="1067" type="line"/>
      <point x="90" y="989" type="line"/>
      <point x="229" y="897" type="line"/>
      <point x="201" y="847"/>
      <point x="187" y="791"/>
      <point x="187" y="733" type="curve" smooth="yes"/>
      <point x="187" y="677"/>
      <point x="200" y="622"/>
      <point x="227" y="574" type="curve"/>
      <point x="92" y="485" type="line"/>
      <point x="142" y="404" type="line"/>
      <point x="284" y="498" type="line"/>
      <point x="345" y="439"/>
      <point x="433" y="402"/>
    </contour>
    <contour>
      <point x="548" y="544" type="curve" smooth="yes"/>
      <point x="410" y="544"/>
      <point x="347" y="635"/>
      <point x="347" y="733" type="curve" smooth="yes"/>
      <point x="347" y="831"/>
      <point x="410" y="922"/>
      <point x="548" y="922" type="curve" smooth="yes"/>
      <point x="683" y="922"/>
      <point x="746" y="831"/>
      <point x="746" y="733" type="curve" smooth="yes"/>
      <point x="746" y="635"/>
      <point x="683" y="544"/>
    </contour>
  </outline>
</glyph>
<glyph name="copyright" format="1">
  <advance width="1792"/>
  <unicode hex="00A9"/>
  <outline>
    <contour>
      <point x="907" y="287" type="curve" smooth="yes"/>
      <point x="1183" y="287"/>
      <point x="1232" y="422"/>
      <point x="1232" y="598" type="curve" smooth="yes"/>
      <point x="1232" y="632" type="line"/>
      <point x="1116" y="632" type="line"/>
      <point x="1116" y="571" type="line" smooth="yes"/>
      <point x="1116" y="419"/>
      <point x="1060" y="376"/>
      <point x="907" y="376" type="curve" smooth="yes"/>
      <point x="755" y="376"/>
      <point x="675" y="419"/>
      <point x="675" y="571" type="curve" smooth="yes"/>
      <point x="675" y="890" type="line" smooth="yes"/>
      <point x="675" y="1042"/>
      <point x="755" y="1091"/>
      <point x="906" y="1091" type="curve" smooth="yes"/>
      <point x="1058" y="1091"/>
      <point x="1116" y="1042"/>
      <point x="1116" y="890" type="curve" smooth="yes"/>
      <point x="1116" y="826" type="line"/>
      <point x="1232" y="836" type="line"/>
      <point x="1232" y="861" type="line" smooth="yes"/>
      <point x="1232" y="1043"/>
      <point x="1183" y="1182"/>
      <point x="906" y="1182" type="curve" smooth="yes"/>
      <point x="618" y="1182"/>
      <point x="555" y="1050"/>
      <point x="555" y="868" type="curve" smooth="yes"/>
      <point x="555" y="590" type="line" smooth="yes"/>
      <point x="555" y="411"/>
      <point x="620" y="287"/>
    </contour>
    <contour>
      <point x="898" y="82" type="curve" smooth="yes"/>
      <point x="534" y="82"/>
      <point x="269" y="357"/>
      <point x="269" y="722" type="curve" smooth="yes"/>
      <point x="269" y="1086"/>
      <point x="534" y="1361"/>
      <point x="898" y="1361" type="curve" smooth="yes"/>
      <point x="1264" y="1361"/>
      <point x="1526" y="1086"/>
      <point x="1526" y="722" type="curve" smooth="yes"/>
      <point x="1526" y="357"/>
      <point x="1264" y="82"/>
    </contour>
    <contour>
      <point x="896" y="-14" type="curve" smooth="yes"/>
      <point x="1312" y="-14"/>
      <point x="1632" y="303"/>
      <point x="1632" y="722" type="curve" smooth="yes"/>
      <point x="1632" y="1139"/>
      <point x="1312" y="1456"/>
      <point x="896" y="1456" type="curve" smooth="yes"/>
      <point x="483" y="1456"/>
      <point x="160" y="1139"/>
      <point x="160" y="722" type="curve" smooth="yes"/>
      <point x="160" y="303"/>
      <point x="483" y="-14"/>
    </contour>
  </outline>
</glyph>
<glyph name="macron" format="1">
  <advance width="403"/>
  <unicode hex="00AF"/>
  <outline>
    <contour>
      <point x="-59" y="1251" type="line"/>
      <point x="466" y="1251" type="line"/>
      <point x="466" y="1408" type="line"/>
      <point x="-59" y="1408" type="line"/>
    </contour>
  </outline>
</glyph>
<glyph name="degree" format="1">
  <advance width="973"/>
  <unicode hex="00B0"/>
  <outline>
    <contour>
      <point x="488" y="992" type="curve" smooth="yes"/>
      <point x="350" y="992"/>
      <point x="287" y="1082"/>
      <point x="287" y="1181" type="curve" smooth="yes"/>
      <point x="287" y="1278"/>
      <point x="350" y="1370"/>
      <point x="488" y="1370" type="curve" smooth="yes"/>
      <point x="624" y="1370"/>
      <point x="687" y="1278"/>
      <point x="687" y="1181" type="curve" smooth="yes"/>
      <point x="687" y="1082"/>
      <point x="623" y="992"/>
    </contour>
    <contour>
      <point x="488" y="850" type="curve" smooth="yes"/>
      <point x="724" y="850"/>
      <point x="845" y="1010"/>
      <point x="845" y="1180" type="curve" smooth="yes"/>
      <point x="845" y="1351"/>
      <point x="724" y="1511"/>
      <point x="488" y="1511" type="curve" smooth="yes"/>
      <point x="249" y="1511"/>
      <point x="127" y="1351"/>
      <point x="127" y="1180" type="curve" smooth="yes"/>
      <point x="127" y="1010"/>
      <point x="248" y="850"/>
    </contour>
  </outline>
</glyph>
<glyph name="plusminus" format="1">
  <advance width="832"/>
  <unicode hex="00B1"/>
  <outline>
    <contour>
      <point x="330" y="326" type="line"/>
      <point x="496" y="326" type="line"/>
      <point x="496" y="521" type="line"/>
      <point x="684" y="521" type="line"/>
      <point x="684" y="685" type="line"/>
      <point x="496" y="685" type="line"/>
      <point x="496" y="878" type="line"/>
      <point x="330" y="878" type="line"/>
      <point x="330" y="685" type="line"/>
      <point x="142" y="685" type="line"/>
      <point x="142" y="521" type="line"/>
      <point x="330" y="521" type="line"/>
    </contour>
    <contour>
      <point x="142" y="0" type="line"/>
      <point x="684" y="0" type="line"/>
      <point x="684" y="165" type="line"/>
      <point x="142" y="165" type="line"/>
    </contour>
  </outline>
</glyph>
<glyph name="ordmasculine" format="1">
  <advance width="1024"/>
  <unicode hex="00BA"/>
  <outline>
    <contour>
      <point x="509" y="675" type="line" smooth="yes"/>
      <point x="408" y="675"/>
      <point x="352" y="708"/>
      <point x="352" y="802" type="curve" smooth="yes"/>
      <point x="352" y="1187" type="line" smooth="yes"/>
      <point x="352" y="1281"/>
      <point x="414" y="1314"/>
      <point x="510" y="1314" type="curve" smooth="yes"/>
      <point x="610" y="1314"/>
      <point x="667" y="1281"/>
      <point x="667" y="1187" type="curve" smooth="yes"/>
      <point x="667" y="802" type="line" smooth="yes"/>
      <point x="667" y="708"/>
      <point x="605" y="675"/>
      <point x="511" y="675" type="curve" smooth="yes"/>
    </contour>
    <contour>
      <point x="513" y="512" type="curve" smooth="yes"/>
      <point x="794.448" y="512.546"/>
      <point x="889" y="628.432"/>
      <point x="889" y="811" type="curve" smooth="yes"/>
      <point x="889" y="1175" type="line" smooth="yes"/>
      <point x="889" y="1363"/>
      <point x="749" y="1475"/>
      <point x="512" y="1475" type="curve" smooth="yes"/>
      <point x="273" y="1475"/>
      <point x="135" y="1363"/>
      <point x="135" y="1175" type="curve" smooth="yes"/>
      <point x="135" y="811" type="line" smooth="yes"/>
      <point x="135" y="627"/>
      <point x="238" y="512"/>
    </contour>
  </outline>
</glyph>
<glyph name="AE" format="1">
  <advance width="1852"/>
  <unicode hex="00C6"/>
  <outline>
    <contour>
      <point x="393" y="0" type="line"/>
      <point x="472" y="281" type="line"/>
      <point x="879" y="281" type="line"/>
      <point x="879" y="0" type="line"/>
      <point x="1734" y="0" type="line"/>
      <point x="1734" y="227" type="line"/>
      <point x="1173" y="227" type="line"/>
      <point x="1173" y="645" type="line"/>
      <point x="1654" y="645" type="line"/>
      <point x="1654" y="858" type="line"/>
      <point x="1173" y="858" type="line"/>
      <point x="1173" y="1249" type="line"/>
      <point x="1724" y="1249" type="line"/>
      <point x="1724" y="1477" type="line"/>
      <point x="525" y="1477" type="line"/>
      <point x="83" y="1" type="line"/>
    </contour>
    <contour>
      <point x="527" y="477" type="line"/>
      <point x="743" y="1249" type="line"/>
      <point x="879" y="1249" type="line"/>
      <point x="879" y="477" type="line"/>
    </contour>
  </outline>
</glyph>
<glyph name="Hbar" format="1">
  <advance width="1664"/>
  <unicode hex="0126"/>
  <outline>
    <contour>
      <point x="1548" y="1091" type="line"/>
      <point x="1548" y="1195" type="line"/>
      <point x="104" y="1195" type="line"/>
      <point x="104" y="1091" type="line"/>
    </contour>
    <component base="H"/>
  </outline>
</glyph>
<glyph name="Eng" format="1">
  <advance width="1680"/>
  <unicode hex="014A"/>
  <outline>
    <contour>
      <point x="923" y="-382" type="line"/>
      <point x="1365" y="-382"/>
      <point x="1472" y="-219"/>
      <point x="1472" y="162" type="curve" smooth="yes"/>
      <point x="1472" y="1477" type="line"/>
      <point x="1205" y="1477" type="line"/>
      <point x="1205" y="560" type="line"/>
      <point x="437" y="1477" type="line"/>
      <point x="212" y="1477" type="line"/>
      <point x="212" y="0" type="line"/>
      <point x="480" y="0" type="line"/>
      <point x="480" y="996" type="line"/>
      <point x="1199" y="153" type="line"/>
      <point x="1199" y="117" type="line" smooth="yes"/>
      <point x="1199" y="-159"/>
      <point x="1128" y="-171"/>
      <point x="895" y="-192" type="curve"/>
    </contour>
  </outline>
</glyph>
<glyph name="oe" format="1">
  <advance width="1838"/>
  <unicode hex="0153"/>
  <outline>
    <contour>
      <point x="611" y="-23" type="curve" smooth="yes"/>
      <point x="761" y="-23"/>
      <point x="862" y="22"/>
      <point x="932" y="90" type="curve"/>
      <point x="1012" y="18"/>
      <point x="1124" y="-23"/>
      <point x="1249" y="-23" type="curve" smooth="yes"/>
      <point x="1539" y="-23"/>
      <point x="1690" y="45"/>
      <point x="1697" y="357" type="curve"/>
      <point x="1443" y="357" type="line"/>
      <point x="1439" y="188"/>
      <point x="1376" y="166"/>
      <point x="1254" y="166" type="curve" smooth="yes"/>
      <point x="1140" y="166"/>
      <point x="1069" y="203"/>
      <point x="1069" y="321" type="curve" smooth="yes"/>
      <point x="1069" y="512" type="line"/>
      <point x="1697" y="512" type="line"/>
      <point x="1697" y="745" type="line" smooth="yes"/>
      <point x="1697" y="961"/>
      <point x="1573" y="1097"/>
      <point x="1247" y="1097" type="curve" smooth="yes"/>
      <point x="1116" y="1097"/>
      <point x="1008" y="1061"/>
      <point x="930" y="977" type="curve"/>
      <point x="852" y="1060"/>
      <point x="743" y="1097"/>
      <point x="611" y="1097" type="curve" smooth="yes"/>
      <point x="334" y="1097"/>
      <point x="151" y="970"/>
      <point x="151" y="749" type="curve" smooth="yes"/>
      <point x="151" y="326" type="line" smooth="yes"/>
      <point x="151" y="112"/>
      <point x="273" y="-23"/>
    </contour>
    <contour>
      <point x="611" y="166" type="curve" smooth="yes"/>
      <point x="488" y="166"/>
      <point x="424" y="205"/>
      <point x="424" y="314" type="curve" smooth="yes"/>
      <point x="424" y="762" type="line" smooth="yes"/>
      <point x="424" y="870"/>
      <point x="497" y="907"/>
      <point x="611" y="907" type="curve" smooth="yes"/>
      <point x="734" y="907"/>
      <point x="796" y="869"/>
      <point x="796" y="762" type="curve" smooth="yes"/>
      <point x="796" y="314" type="line" smooth="yes"/>
      <point x="796" y="205"/>
      <point x="725" y="166"/>
    </contour>
    <contour>
      <point x="1069" y="655" type="line"/>
      <point x="1069" y="760" type="line" smooth="yes"/>
      <point x="1069" y="874"/>
      <point x="1145" y="907"/>
      <point x="1254" y="907" type="curve" smooth="yes"/>
      <point x="1363" y="907"/>
      <point x="1440" y="884"/>
      <point x="1440" y="765" type="curve" smooth="yes"/>
      <point x="1440" y="655" type="line"/>
    </contour>
  </outline>
</glyph>
<glyph name="caron" format="1">
  <advance width="512"/>
  <unicode hex="02C7"/>
  <outline>
    <contour>
      <point x="192" y="1216" type="line"/>
      <point x="355" y="1216" type="line"/>
      <point x="589" y="1516" type="line"/>
      <point x="409" y="1516" type="line"/>
      <point x="273" y="1341" type="line"/>
      <point x="145" y="1516" type="line"/>
      <point x="-30" y="1516" type="line"/>
    </contour>
  </outline>
</glyph>
<glyph name="mu" format="1">
  <advance width="1286"/>
  <unicode hex="03BC"/>
  <outline>
    <contour>
      <point x="481" y="-28"/>
      <point x="520" y="-33"/>
      <point x="557" y="-33" type="curve" smooth="yes"/>
      <point x="694" y="-33"/>
      <point x="795" y="36"/>
      <point x="835" y="135" type="curve"/>
      <point x="841" y="0" type="line"/>
      <point x="1108" y="0" type="line"/>
      <point x="1108" y="1074" type="line"/>
      <point x="835" y="1074" type="line"/>
      <point x="835" y="317" type="line" smooth="yes"/>
      <point x="835" y="217"/>
      <point x="721" y="166"/>
      <point x="622" y="166" type="curve" smooth="yes"/>
      <point x="538" y="166"/>
      <point x="440" y="196"/>
      <point x="440" y="308" type="curve" smooth="yes"/>
      <point x="440" y="1074" type="line"/>
      <point x="168" y="1074" type="line"/>
      <point x="168" y="-236" type="line"/>
      <point x="440" y="-236" type="line"/>
      <point x="440" y="-18" type="line"/>
    </contour>
  </outline>
</glyph>
<glyph name="uni1E0A" format="1">
  <advance width="1533"/>
  <unicode hex="1E0A"/>
  <outline>
    <contour>
      <point x="212" y="0" type="line"/>
      <point x="853" y="0" type="line" smooth="yes"/>
      <point x="1268" y="0"/>
      <point x="1396" y="213"/>
      <point x="1396" y="508" type="curve" smooth="yes"/>
      <point x="1396" y="961" type="line" smooth="yes"/>
      <point x="1396" y="1241.02"/>
      <point x="1287.1" y="1462.83"/>
      <point x="891" y="1476.35" type="curve"/>
      <point x="891" y="1498" type="line"/>
      <point x="643" y="1498" type="line"/>
      <point x="643" y="1477" type="line"/>
      <point x="212" y="1477" type="line"/>
    </contour>
    <contour>
      <point x="509" y="231" type="line"/>
      <point x="509" y="1245" type="line"/>
      <point x="827" y="1245" type="line" smooth="yes"/>
      <point x="1033" y="1245"/>
      <point x="1099" y="1160"/>
      <point x="1099" y="1000" type="curve" smooth="yes"/>
      <point x="1099" y="470" type="line" smooth="yes"/>
      <point x="1099" y="306"/>
      <point x="1036" y="231"/>
      <point x="827" y="231" type="curve" smooth="yes"/>
    </contour>
  </outline>
</glyph>
<glyph name="uni1E1E" format="1">
  <advance width="1166"/>
  <unicode hex="1E1E"/>
  <outline>
    <contour>
      <point x="212" y="0" type="line"/>
      <point x="509" y="0" type="line"/>
      <point x="509" y="634" type="line"/>
      <point x="1054" y="634" type="line"/>
      <point x="1054" y="847" type="line"/>
      <point x="509" y="847" type="line"/>
      <point x="509" y="1249" type="line"/>
      <point x="1095" y="1249" type="line"/>
      <point x="1095" y="1477" type="line"/>
      <point x="212" y="1477" type="line"/>
    </contour>
    <contour>
      <point x="513" y="1664" type="line"/>
      <point x="761" y="1664" type="line"/>
      <point x="761" y="1911" type="line"/>
      <point x="513" y="1911" type="line"/>
    </contour>
  </outline>
</glyph>
<glyph name="uni1E60" format="1">
  <advance width="1294"/>
  <unicode hex="1E60"/>
  <outline>
    <contour>
      <point x="706" y="-26" type="curve" smooth="yes"/>
      <point x="1043" y="-26"/>
      <point x="1186" y="172"/>
      <point x="1186" y="422" type="curve" smooth="yes"/>
      <point x="1186" y="654"/>
      <point x="1086" y="777"/>
      <point x="887" y="837" type="curve" smooth="yes"/>
      <point x="637" y="912" type="line" smooth="yes"/>
      <point x="480" y="959"/>
      <point x="441" y="1008"/>
      <point x="446" y="1121" type="curve" smooth="yes"/>
      <point x="449.203" y="1188.91"/>
      <point x="487.29" y="1230.14"/>
      <point x="554.213" y="1251" type="curve"/>
      <point x="772" y="1251" type="line"/>
      <point x="772" y="1264.11" type="line"/>
      <point x="884.753" y="1253.01"/>
      <point x="987.497" y="1219.31"/>
      <point x="1077" y="1177" type="curve"/>
      <point x="1161" y="1386" type="line"/>
      <point x="1050.17" y="1450.38"/>
      <point x="921.403" y="1486.2"/>
      <point x="772" y="1497.26" type="curve"/>
      <point x="772" y="1498" type="line"/>
      <point x="761.365" y="1498" type="line"/>
      <point x="730.774" y="1500.01"/>
      <point x="699.327" y="1501"/>
      <point x="667" y="1501" type="curve" smooth="yes"/>
      <point x="641.702" y="1501"/>
      <point x="616.926" y="1500"/>
      <point x="592.772" y="1498" type="curve"/>
      <point x="524" y="1498" type="line"/>
      <point x="524" y="1489.27" type="line"/>
      <point x="306.318" y="1451.46"/>
      <point x="154" y="1321.79"/>
      <point x="154" y="1094" type="curve" smooth="yes"/>
      <point x="154" y="905"/>
      <point x="219" y="752"/>
      <point x="460" y="681" type="curve" smooth="yes"/>
      <point x="712" y="607" type="line" smooth="yes"/>
      <point x="905" y="550"/>
      <point x="918" y="482"/>
      <point x="914" y="390" type="curve" smooth="yes"/>
      <point x="909" y="281"/>
      <point x="869" y="207"/>
      <point x="699" y="207" type="curve" smooth="yes"/>
      <point x="516" y="207"/>
      <point x="353" y="265"/>
      <point x="240" y="325" type="curve"/>
      <point x="138" y="108" type="line"/>
      <point x="286" y="25"/>
      <point x="505" y="-26"/>
    </contour>
  </outline>
</glyph>
<glyph name="quotedblbase" format="1">
  <advance width="1076"/>
  <unicode hex="201E"/>
  <outline>
    <contour>
      <point x="200" y="-389" type="line"/>
      <point x="262" y="-333"/>
      <point x="396" y="-148"/>
      <point x="396" y="53" type="curve" smooth="yes"/>
      <point x="396" y="276" type="line"/>
      <point x="74" y="276" type="line"/>
      <point x="74" y="0" type="line"/>
      <point x="239" y="0" type="line"/>
      <point x="239" y="-138"/>
      <point x="144" y="-285"/>
      <point x="93" y="-343" type="curve"/>
    </contour>
    <contour>
      <point x="699" y="-389" type="line"/>
      <point x="761" y="-333"/>
      <point x="895" y="-148"/>
      <point x="895" y="53" type="curve" smooth="yes"/>
      <point x="895" y="276" type="line"/>
      <point x="573" y="276" type="line"/>
      <point x="573" y="0" type="line"/>
      <point x="738" y="0" type="line"/>
      <point x="738" y="-138"/>
      <point x="643" y="-285"/>
      <point x="592" y="-343" type="curve"/>
    </contour>
  </outline>
</glyph>
<glyph name="daggerdbl" format="1">
  <advance width="745"/>
  <unicode hex="2021"/>
  <outline>
    <contour>
      <point x="269" y="0" type="line"/>
      <point x="474" y="0" type="line"/>
      <point x="474" y="383" type="line"/>
      <point x="666" y="383" type="line"/>
      <point x="666" y="569" type="line"/>
      <point x="474" y="569" type="line"/>
      <point x="474" y="873" type="line"/>
      <point x="666" y="873" type="line"/>
      <point x="666" y="1059" type="line"/>
      <point x="474" y="1059" type="line"/>
      <point x="474" y="1324" type="line"/>
      <point x="269" y="1324" type="line"/>
      <point x="269" y="1059" type="line"/>
      <point x="79" y="1059" type="line"/>
      <point x="79" y="873" type="line"/>
      <point x="269" y="873" type="line"/>
      <point x="269" y="569" type="line"/>
      <point x="79" y="569" type="line"/>
      <point x="79" y="383" type="line"/>
      <point x="269" y="383" type="line"/>
    </contour>
  </outline>
</glyph>
<glyph name="greaterequal" format="1">
  <advance width="1250"/>
  <unicode hex="2265"/>
  <outline>
    <contour>
      <point x="152" y="31" type="line"/>
      <point x="896" y="446" type="line"/>
      <point x="896" y="665" type="line"/>
      <point x="152" y="1081" type="line"/>
      <point x="152" y="848" type="line"/>
      <point x="715" y="556" type="line"/>
      <point x="152" y="260" type="line"/>
    </contour>
    <contour>
      <point x="91" y="-205" type="line"/>
      <point x="974" y="-205" type="line"/>
      <point x="974" y="-30" type="line"/>
      <point x="91" y="-30" type="line"/>
    </contour>
  </outline>
</glyph>
<glyph name="lozenge" format="1">
  <advance width="1104"/>
  <unicode hex="25CA"/>
  <outline>
    <contour>
      <point x="466" y="0" type="line"/>
      <point x="664" y="0" type="line"/>
      <point x="1002" y="754" type="line"/>
      <point x="664" y="1505" type="line"/>
      <point x="466" y="1505" type="line"/>
      <point x="102" y="754" type="line"/>
    </contour>
    <contour>
      <point x="567" y="188" type="line"/>
      <point x="316" y="754" type="line"/>
      <point x="567" y="1307" type="line"/>
      <point x="793" y="754" type="line"/>
    </contour>
  </outline>
</glyph>
<glyph name="uniFB00" format="1">
  <advance width="1326"/>
  <unicode hex="FB00"/>
  <outline>
    <contour>
      <point x="169" y="0" type="line"/>
      <point x="420" y="0" type="line"/>
      <point x="420" y="901" type="line"/>
      <point x="875" y="901" type="line"/>
      <point x="875" y="0" type="line"/>
      <point x="1126" y="0" type="line"/>
      <point x="1126" y="901" type="line"/>
      <point x="1298" y="901" type="line"/>
      <point x="1298" y="1074" type="line"/>
      <point x="1126" y="1074" type="line"/>
      <point x="1126" y="1164" type="line" smooth="yes"/>
      <point x="1126" y="1236"/>
      <point x="1152" y="1267"/>
      <point x="1218" y="1267" type="curve" smooth="yes"/>
      <point x="1229" y="1267"/>
      <point x="1304" y="1264"/>
      <point x="1304" y="1264" type="curve"/>
      <point x="1300" y="1449" type="line"/>
      <point x="1300" y="1449"/>
      <point x="1196" y="1457"/>
      <point x="1142" y="1457" type="curve" smooth="yes"/>
      <point x="934" y="1457"/>
      <point x="879" y="1317"/>
      <point x="875" y="1140" type="curve"/>
      <point x="875" y="1074" type="line"/>
      <point x="420" y="1074" type="line"/>
      <point x="420" y="1164" type="line" smooth="yes"/>
      <point x="420" y="1236"/>
      <point x="457" y="1267"/>
      <point x="547" y="1267" type="curve" smooth="yes"/>
      <point x="567" y="1267"/>
      <point x="674" y="1264"/>
      <point x="674" y="1264" type="curve"/>
      <point x="670" y="1449" type="line"/>
      <point x="670" y="1449"/>
      <point x="512" y="1457"/>
      <point x="435" y="1457" type="curve" smooth="yes"/>
      <point x="228" y="1457"/>
      <point x="173" y="1317"/>
      <point x="170" y="1140" type="curve" smooth="yes"/>
      <point x="170" y="1134"/>
      <point x="169" y="1079"/>
      <point x="169" y="1074" type="curve"/>
      <point x="71" y="1074" type="line"/>
      <point x="71" y="901" type="line"/>
      <point x="169" y="901" type="line"/>
    </contour>
  </outline>
</glyph>
<glyph name="uniFB04" format="1">
  <advance width="2284"/>
  <unicode hex="FB04"/>
  <outline>
    <contour>
      <point x="254" y="0" type="line"/>
      <point x="527" y="0" type="line"/>
      <point x="527" y="901" type="line"/>
      <point x="741" y="901" type="line"/>
      <point x="741" y="1074" type="line"/>
      <point x="527" y="1074" type="line"/>
      <point x="527" y="1200" type="line" smooth="yes"/>
      <point x="527" y="1272"/>
      <point x="548" y="1327"/>
      <point x="666" y="1327" type="curve" smooth="yes"/>
      <point x="756" y="1327" type="line"/>
      <point x="743" y="1516" type="line"/>
      <point x="617" y="1516" type="line" smooth="yes"/>
      <point x="362" y="1516"/>
      <point x="254" y="1380"/>
      <point x="254" y="1125" type="curve" smooth="yes"/>
      <point x="254" y="1074" type="line"/>
      <point x="112" y="1074" type="line"/>
      <point x="112" y="901" type="line"/>
      <point x="254" y="901" type="line"/>
    </contour>
    <contour>
      <point x="1044" y="0" type="line"/>
      <point x="1317" y="0" type="line"/>
      <point x="1317" y="901" type="line"/>
      <point x="1531" y="901" type="line"/>
      <point x="1531" y="1074" type="line"/>
      <point x="1317" y="1074" type="line"/>
      <point x="1317" y="1200" type="line" smooth="yes"/>
      <point x="1317" y="1272"/>
      <point x="1338" y="1327"/>
      <point x="1456" y="1327" type="curve" smooth="yes"/>
      <point x="1546" y="1327" type="line"/>
      <point x="1533" y="1516" type="line"/>
      <point x="1407" y="1516" type="line" smooth="yes"/>
      <point x="1152" y="1516"/>
      <point x="1044" y="1380"/>
      <point x="1044" y="1125" type="curve" smooth="yes"/>
      <point x="1044" y="1074" type="line"/>
      <point x="902" y="1074" type="line"/>
      <point x="902" y="901" type="line"/>
      <point x="1044" y="901" type="line"/>
    </contour>
    <contour>
      <point x="2109" y="-12" type="curve" smooth="yes"/>
      <point x="2223" y="-12" type="line"/>
      <point x="2244" y="190" type="line"/>
      <point x="2210" y="190" type="line" smooth="yes"/>
      <point x="2064" y="190"/>
      <point x="2030" y="239"/>
      <point x="2030" y="357" type="curve" smooth="yes"/>
      <point x="2030" y="1515" type="line"/>
      <point x="1758" y="1515" type="line"/>
      <point x="1758" y="353" type="line" smooth="yes"/>
      <point x="1758" y="83"/>
      <point x="1870" y="-12"/>
    </contour>
  </outline>
</glyph>
